<?xml version="1.0" encoding="utf-8"?>
<!-- Generator: Adobe Illustrator 25.2.1, SVG Export Plug-In . SVG Version: 6.00 Build 0)  -->
<svg version="1.1" id="Layer_1" xmlns="http://www.w3.org/2000/svg" xmlns:xlink="http://www.w3.org/1999/xlink" x="0px" y="0px"
	 viewBox="0 0 500 500" style="enable-background:new 0 0 500 500;" xml:space="preserve">
<style type="text/css">
	.st0{fill:none;}
	.st1{fill:none;stroke:#FFFFFF;stroke-width:4;}
	.st2{fill:none;stroke:#053E4E;stroke-width:4;}
	.st3{fill:#1EEBB1;stroke:#053E4E;stroke-width:4;}
	.st4{fill:#053E4E;}
	.st5{font-family:'ArialMT';}
	.st6{font-size:12px;}
</style>
<path class="st0" d="z"/>
<g>
	<g>
		<path class="st1" d="M59.8,413.6H50v18.2"/>
		<path class="st2" d="M79.8,413.6h-20 M59.8,413.6H50v18.2 M50,431.8V450"/>
	</g>
	<g>
		<path class="st1" d="M99.8,413.6H130v18.2"/>
		<path class="st2" d="M79.8,413.6h20 M99.8,413.6H130v18.2 M130,431.8V450"/>
	</g>
	<g>
		<path class="st1" d="M249.1,377.3H210V430"/>
		<path class="st2" d="M269.1,377.3h-20 M249.1,377.3H210V430 M210,430v20"/>
	</g>
	<g>
		<path class="st1" d="M289.1,377.3h0.9V430"/>
		<path class="st2" d="M269.1,377.3h20 M289.1,377.3h0.9V430 M290,430v20"/>
	</g>
	<g>
		<path class="st1" d="M363.2,340.9h6.8V430"/>
		<path class="st2" d="M343.2,340.9h20 M363.2,340.9h6.8V430 M370,430v20"/>
	</g>
	<g>
		<path class="st1" d="M323.2,340.9h-54v18.2"/>
		<path class="st2" d="M343.2,340.9h-20 M323.2,340.9h-54v18.2 M269.1,359.1v18.2"/>
	</g>
	<g>
		<path class="st1" d="M343.2,322.7L343.2,322.7 M343.2,322.7L343.2,322.7 M343.2,322.7L343.2,322.7"/>
		<path class="st2" d="M343.2,304.5v18.2 M343.2,322.7L343.2,322.7 M343.2,322.7L343.2,322.7 M343.2,322.7L343.2,322.7 M343.2,322.7
			v18.2"/>
	</g>
	<g>
		<path class="st1" d="M425.1,268.2H450V430"/>
		<path class="st2" d="M405.1,268.2h20 M425.1,268.2H450V430 M450,430v20"/>
	</g>
	<g>
		<path class="st1" d="M385.1,268.2h-11v36.4h-11"/>
		<path class="st2" d="M405.1,268.2h-20 M385.1,268.2h-11v36.4h-11 M363.2,304.5h-20"/>
	</g>
	<g>
		<path class="st1" d="M301.3,231.8v72.7h21.9"/>
		<path class="st2" d="M321.3,231.8h-20 M301.3,231.8v72.7h21.9 M323.2,304.5h20"/>
	</g>
	<g>
		<path class="st1" d="M341.3,231.8h63.8V250"/>
		<path class="st2" d="M321.3,231.8h20 M341.3,231.8h63.8V250 M405.1,250v18.2"/>
	</g>
	<g>
		<path class="st1" d="M79.8,215.5v89.1 M79.8,304.5L79.8,304.5 M79.8,304.5v89.1"/>
		<path class="st2" d="M79.8,195.5v20 M79.8,215.5v89.1 M79.8,304.5L79.8,304.5 M79.8,304.5v89.1 M79.8,393.6v20"/>
	</g>
	<g>
		<path class="st1" d="M149.3,177.3v18.2H99.8"/>
		<path class="st2" d="M149.3,159.1v18.2 M149.3,177.3v18.2H99.8 M99.8,195.5h-20"/>
	</g>
	<g>
		<path class="st1" d="M244.5,122.7h76.8v89.1"/>
		<path class="st2" d="M224.5,122.7h20 M244.5,122.7h76.8v89.1 M321.3,211.8v20"/>
	</g>
	<g>
		<path class="st1" d="M204.5,122.7h-17.6v36.4h-17.6"/>
		<path class="st2" d="M224.5,122.7h-20 M204.5,122.7h-17.6v36.4h-17.6 M169.3,159.1h-20"/>
	</g>
	<g>
		<path class="st1" d="M136.1,86.4h-6.7v72.7"/>
		<path class="st2" d="M156.1,86.4h-20 M136.1,86.4h-6.7v72.7 M129.3,159.1h20"/>
	</g>
	<g>
		<path class="st1" d="M176.1,86.4h48.5v18.2"/>
		<path class="st2" d="M156.1,86.4h20 M176.1,86.4h48.5v18.2 M224.5,104.5v18.2"/>
	</g>
	<g>
		<path class="st1" d="M82.3,50H59.8v145.5"/>
		<path class="st2" d="M102.3,50h-20 M82.3,50H59.8v145.5 M59.8,195.5h20"/>
	</g>
	<g>
		<path class="st1" d="M122.3,50h33.8v18.2"/>
		<path class="st2" d="M102.3,50h20 M122.3,50h33.8v18.2 M156.1,68.2v18.2"/>
	</g>
</g>
<g>
	<g>
		<path id="_x38_240106261_x5F_node0" class="st3" d="M56.9,450c0,3.8-3.1,6.9-6.9,6.9s-6.9-3.1-6.9-6.9s3.1-6.9,6.9-6.9
			S56.9,446.2,56.9,450"/>
	</g>
	<g>
		<path id="_x38_240106261_x5F_node1" class="st3" d="M216.9,450c0,3.8-3.1,6.9-6.9,6.9s-6.9-3.1-6.9-6.9s3.1-6.9,6.9-6.9
			S216.9,446.2,216.9,450"/>
	</g>
	<g>
		<path id="_x38_240106261_x5F_node2" class="st3" d="M456.9,450c0,3.8-3.1,6.9-6.9,6.9s-6.9-3.1-6.9-6.9s3.1-6.9,6.9-6.9
			S456.9,446.2,456.9,450"/>
	</g>
	<g>
		<path id="_x38_240106261_x5F_node3" class="st3" d="M136.9,450c0,3.8-3.1,6.9-6.9,6.9s-6.9-3.1-6.9-6.9s3.1-6.9,6.9-6.9
			S136.9,446.2,136.9,450"/>
	</g>
	<g>
		<path id="_x38_240106261_x5F_node4" class="st3" d="M296.9,450c0,3.8-3.1,6.9-6.9,6.9s-6.9-3.1-6.9-6.9s3.1-6.9,6.9-6.9
			S296.9,446.2,296.9,450"/>
	</g>
	<g>
		<path id="_x38_240106261_x5F_node5" class="st3" d="M376.9,450c0,3.8-3.1,6.9-6.9,6.9s-6.9-3.1-6.9-6.9s3.1-6.9,6.9-6.9
			S376.9,446.2,376.9,450"/>
	</g>
	<g>
		<path id="_x38_240106261_x5F_node6" class="st3" d="M86.7,413.6c0,3.8-3.1,6.9-6.9,6.9s-6.9-3.1-6.9-6.9s3.1-6.9,6.9-6.9
			S86.7,409.8,86.7,413.6"/>
	</g>
	<g>
		<path id="_x38_240106261_x5F_node7" class="st3" d="M276,377.3c0,3.8-3.1,6.9-6.9,6.9s-6.9-3.1-6.9-6.9s3.1-6.9,6.9-6.9
			S276,373.5,276,377.3"/>
	</g>
	<g>
		<path id="_x38_240106261_x5F_node8" class="st3" d="M350.1,340.9c0,3.8-3.1,6.9-6.9,6.9s-6.9-3.1-6.9-6.9s3.1-6.9,6.9-6.9
			S350.1,337.1,350.1,340.9"/>
	</g>
	<g>
		<path id="_x38_240106261_x5F_node9" class="st3" d="M350.1,304.5c0,3.8-3.1,6.9-6.9,6.9s-6.9-3.1-6.9-6.9s3.1-6.9,6.9-6.9
			S350.1,300.7,350.1,304.5"/>
	</g>
	<g>
		<path id="_x38_240106261_x5F_node11" class="st3" d="M412,268.2c0,3.8-3.1,6.9-6.9,6.9s-6.9-3.1-6.9-6.9s3.1-6.9,6.9-6.9
			S412,264.4,412,268.2"/>
	</g>
	<g>
		<path id="_x38_240106261_x5F_node12" class="st3" d="M328.2,231.8c0,3.8-3.1,6.9-6.9,6.9s-6.9-3.1-6.9-6.9s3.1-6.9,6.9-6.9
			S328.2,228,328.2,231.8"/>
	</g>
	<g>
		<path id="_x38_240106261_x5F_node13" class="st3" d="M86.7,195.5c0,3.8-3.1,6.9-6.9,6.9s-6.9-3.1-6.9-6.9s3.1-6.9,6.9-6.9
			S86.7,191.6,86.7,195.5"/>
	</g>
	<g>
		<path id="_x38_240106261_x5F_node15" class="st3" d="M156.2,159.1c0,3.8-3.1,6.9-6.9,6.9s-6.9-3.1-6.9-6.9s3.1-6.9,6.9-6.9
			S156.2,155.3,156.2,159.1"/>
	</g>
	<g>
		<path id="_x38_240106261_x5F_node17" class="st3" d="M231.4,122.7c0,3.8-3.1,6.9-6.9,6.9s-6.9-3.1-6.9-6.9s3.1-6.9,6.9-6.9
			S231.4,118.9,231.4,122.7"/>
	</g>
	<g>
		<path id="_x38_240106261_x5F_node18" class="st3" d="M163,86.4c0,3.8-3.1,6.9-6.9,6.9s-6.9-3.1-6.9-6.9s3.1-6.9,6.9-6.9
			S163,82.5,163,86.4"/>
	</g>
	<g>
		<path id="_x38_240106261_x5F_node19" class="st3" d="M109.2,50c0,3.8-3.1,6.9-6.9,6.9s-6.9-3.1-6.9-6.9s3.1-6.9,6.9-6.9
			S109.2,46.2,109.2,50"/>
	</g>
</g>
<g>
	<g transform="translate(50,471.1237)">
		<text transform="matrix(1 0 0 1 -3.3369 -1.528438e-04)" class="st4 st5 st6">0</text>
	</g>
	<g transform="translate(210,471.1237)">
		<text transform="matrix(1 0 0 1 -3.3369 -1.528438e-04)" class="st4 st5 st6">1</text>
	</g>
	<g transform="translate(450,471.1237)">
		<text transform="matrix(1 0 0 1 -3.3369 -1.528438e-04)" class="st4 st5 st6">2</text>
	</g>
	<g transform="translate(130,471.1237)">
		<text transform="matrix(1 0 0 1 -3.3369 -1.528438e-04)" class="st4 st5 st6">3</text>
	</g>
	<g transform="translate(290,471.1237)">
		<text transform="matrix(1 0 0 1 -3.3369 -1.528438e-04)" class="st4 st5 st6">4</text>
	</g>
	<g transform="translate(370,471.1237)">
		<text transform="matrix(1 0 0 1 -3.3369 -1.528438e-04)" class="st4 st5 st6">5</text>
	</g>
	<g transform="translate(91.9321,401.5126)">
		<text transform="matrix(1 0 0 1 3.090625e-05 9.131250e-05)" class="st4 st5 st6">6</text>
	</g>
	<g transform="translate(257.0098,365.149)">
		<text transform="matrix(1 0 0 1 -6.6739 -6.121875e-05)" class="st4 st5 st6">7</text>
	</g>
	<g transform="translate(355.305,328.7854)">
		<text transform="matrix(1 0 0 1 -6.135937e-05 -2.437500e-04)" class="st4 st5 st6">8</text>
	</g>
	<g transform="translate(343.1813,289.4217)">
		<text transform="matrix(1 0 0 1 -11.6776 1.830000e-04)" class="st4 st5 st6">9/10</text>
	</g>
	<g transform="translate(417.263,256.0581)">
		<text transform="matrix(1 0 0 1 -6.054687e-05 0)" class="st4 st5 st6">11</text>
	</g>
	<g transform="translate(333.4552,219.6945)">
		<text transform="matrix(1 0 0 1 -1.218750e-04 -1.680625e-04)" class="st4 st5 st6">12</text>
	</g>
	<g transform="translate(79.8084,180.3308)">
		<text transform="matrix(1 0 0 1 -15.0147 -2.285938e-04)" class="st4 st5 st6">13/14</text>
	</g>
	<g transform="translate(149.3231,143.9672)">
		<text transform="matrix(1 0 0 1 -15.0148 9.115625e-05)" class="st4 st5 st6">15/16</text>
	</g>
	<g transform="translate(236.6636,110.6035)">
		<text transform="matrix(1 0 0 1 -3.078125e-05 1.562500e-05)" class="st4 st5 st6">17</text>
	</g>
	<g transform="translate(168.1889,74.2399)">
		<text transform="matrix(1 0 0 1 6.084375e-05 -1.529062e-04)" class="st4 st5 st6">18</text>
	</g>
	<g transform="translate(102.2589,34.8763)">
		<text transform="matrix(1 0 0 1 -6.6739 1.638438e-04)" class="st4 st5 st6">19</text>
	</g>
</g>
<path class="st0" d="z"/>
</svg>
