<?xml version="1.0" encoding="utf-8"?>
<!-- Generator: Adobe Illustrator 25.2.1, SVG Export Plug-In . SVG Version: 6.00 Build 0)  -->
<svg version="1.1" id="Layer_1" xmlns="http://www.w3.org/2000/svg" xmlns:xlink="http://www.w3.org/1999/xlink" x="0px" y="0px"
	 viewBox="0 0 500 500" style="enable-background:new 0 0 500 500;" xml:space="preserve">
<style type="text/css">
	.st0{fill:none;}
	.st1{fill:none;stroke:#FFFFFF;stroke-width:4;}
	.st2{fill:none;stroke:#053E4E;stroke-width:4;}
	.st3{fill:#1EEBB1;stroke:#053E4E;stroke-width:4;}
	.st4{fill:#053E4E;}
	.st5{font-family:'ArialMT';}
	.st6{font-size:12px;}
</style>
<path class="st0" d="z"/>
<g>
	<g>
		<path class="st1" d="M202.2,413.6H50v18.2"/>
		<path class="st2" d="M222.2,413.6h-20 M202.2,413.6H50v18.2 M50,431.8V450"/>
	</g>
	<g>
		<path class="st1" d="M242.2,413.6v18.2H130"/>
		<path class="st2" d="M222.2,413.6h20 M242.2,413.6v18.2H130 M130,431.8V450"/>
	</g>
	<g>
		<path class="st1" d="M231,377.3h-21V430"/>
		<path class="st2" d="M251,377.3h-20 M231,377.3h-21V430 M210,430v20"/>
	</g>
	<g>
		<path class="st1" d="M271,377.3h19V430"/>
		<path class="st2" d="M251,377.3h20 M271,377.3h19V430 M290,430v20"/>
	</g>
	<g>
		<path class="st1" d="M282.5,340.9H370V430"/>
		<path class="st2" d="M262.5,340.9h20 M282.5,340.9H370V430 M370,430v20"/>
	</g>
	<g>
		<path class="st1" d="M242.5,340.9v18.2h8.5"/>
		<path class="st2" d="M262.5,340.9h-20 M242.5,340.9v18.2h8.5 M251,359.1v18.2"/>
	</g>
	<g>
		<path class="st1" d="M252.1,322.7L252.1,322.7 M252.1,322.7h10.4 M262.5,322.7L262.5,322.7"/>
		<path class="st2" d="M252.1,304.5v18.2 M252.1,322.7L252.1,322.7 M252.1,322.7h10.4 M262.5,322.7L262.5,322.7 M262.5,322.7v18.2"
			/>
	</g>
	<g>
		<path class="st1" d="M292.4,268.2H450V430"/>
		<path class="st2" d="M272.4,268.2h20 M292.4,268.2H450V430 M450,430v20"/>
	</g>
	<g>
		<path class="st1" d="M252.4,268.2v18.2 M252.4,286.4h19.6 M272.1,286.4v18.2"/>
		<path class="st2" d="M272.4,268.2h-20 M252.4,268.2v18.2 M252.4,286.4h19.6 M272.1,286.4v18.2 M272.1,304.5h-20"/>
	</g>
	<g>
		<path class="st1" d="M232.4,231.8h-0.3v72.7"/>
		<path class="st2" d="M252.4,231.8h-20 M232.4,231.8h-0.3v72.7 M232.1,304.5h20"/>
	</g>
	<g>
		<path class="st1" d="M272.4,231.8L272.4,231.8l0,18.2"/>
		<path class="st2" d="M252.4,231.8h20 M272.4,231.8L272.4,231.8l0,18.2 M272.4,250v18.2"/>
	</g>
	<g>
		<path class="st1" d="M246.5,215.5v89.1 M246.5,304.5h-24.3 M222.2,304.5v89.1"/>
		<path class="st2" d="M246.5,195.5v20 M246.5,215.5v89.1 M246.5,304.5h-24.3 M222.2,304.5v89.1 M222.2,393.6v20"/>
	</g>
	<g>
		<path class="st1" d="M249.6,177.3h16.9v18.2"/>
		<path class="st2" d="M249.6,159.1v18.2 M249.6,177.3h16.9v18.2 M266.5,195.5h-20"/>
	</g>
	<g>
		<path class="st1" d="M270.4,122.7v89.1h-18"/>
		<path class="st2" d="M250.4,122.7h20 M270.4,122.7v89.1h-18 M252.4,211.8v20"/>
	</g>
	<g>
		<path class="st1" d="M230.4,122.7v18.2 M230.4,140.9h39.2 M269.6,140.9v18.2"/>
		<path class="st2" d="M250.4,122.7h-20 M230.4,122.7v18.2 M230.4,140.9h39.2 M269.6,140.9v18.2 M269.6,159.1h-20"/>
	</g>
	<g>
		<path class="st1" d="M270.9,86.4v36.4 M270.9,122.7h-41.3 M229.6,122.7v36.4"/>
		<path class="st2" d="M250.9,86.4h20 M270.9,86.4v36.4 M270.9,122.7h-41.3 M229.6,122.7v36.4 M229.6,159.1h20"/>
	</g>
	<g>
		<path class="st1" d="M230.9,86.4v18.2h19.5"/>
		<path class="st2" d="M250.9,86.4h-20 M230.9,86.4v18.2h19.5 M250.4,104.5v18.2"/>
	</g>
	<g>
		<path class="st1" d="M227.7,50h-1.2v145.5"/>
		<path class="st2" d="M247.7,50h-20 M227.7,50h-1.2v145.5 M226.5,195.5h20"/>
	</g>
	<g>
		<path class="st1" d="M267.7,50v18.2h-16.7"/>
		<path class="st2" d="M247.7,50h20 M267.7,50v18.2h-16.7 M250.9,68.2v18.2"/>
	</g>
</g>
<g>
	<g>
		<path id="_x39_467782132_x5F_node0" class="st3" d="M56.9,450c0,3.8-3.1,6.9-6.9,6.9s-6.9-3.1-6.9-6.9s3.1-6.9,6.9-6.9
			S56.9,446.2,56.9,450"/>
	</g>
	<g>
		<path id="_x39_467782132_x5F_node1" class="st3" d="M216.9,450c0,3.8-3.1,6.9-6.9,6.9s-6.9-3.1-6.9-6.9s3.1-6.9,6.9-6.9
			S216.9,446.2,216.9,450"/>
	</g>
	<g>
		<path id="_x39_467782132_x5F_node2" class="st3" d="M456.9,450c0,3.8-3.1,6.9-6.9,6.9s-6.9-3.1-6.9-6.9s3.1-6.9,6.9-6.9
			S456.9,446.2,456.9,450"/>
	</g>
	<g>
		<path id="_x39_467782132_x5F_node3" class="st3" d="M136.9,450c0,3.8-3.1,6.9-6.9,6.9s-6.9-3.1-6.9-6.9s3.1-6.9,6.9-6.9
			S136.9,446.2,136.9,450"/>
	</g>
	<g>
		<path id="_x39_467782132_x5F_node4" class="st3" d="M296.9,450c0,3.8-3.1,6.9-6.9,6.9s-6.9-3.1-6.9-6.9s3.1-6.9,6.9-6.9
			S296.9,446.2,296.9,450"/>
	</g>
	<g>
		<path id="_x39_467782132_x5F_node5" class="st3" d="M376.9,450c0,3.8-3.1,6.9-6.9,6.9s-6.9-3.1-6.9-6.9s3.1-6.9,6.9-6.9
			S376.9,446.2,376.9,450"/>
	</g>
	<g>
		<path id="_x39_467782132_x5F_node6" class="st3" d="M229.1,413.6c0,3.8-3.1,6.9-6.9,6.9s-6.9-3.1-6.9-6.9s3.1-6.9,6.9-6.9
			S229.1,409.8,229.1,413.6"/>
	</g>
	<g>
		<path id="_x39_467782132_x5F_node7" class="st3" d="M257.9,377.3c0,3.8-3.1,6.9-6.9,6.9s-6.9-3.1-6.9-6.9s3.1-6.9,6.9-6.9
			S257.9,373.5,257.9,377.3"/>
	</g>
	<g>
		<path id="_x39_467782132_x5F_node8" class="st3" d="M269.4,340.9c0,3.8-3.1,6.9-6.9,6.9s-6.9-3.1-6.9-6.9s3.1-6.9,6.9-6.9
			S269.4,337.1,269.4,340.9"/>
	</g>
	<g>
		<path id="_x39_467782132_x5F_node9" class="st3" d="M259,304.5c0,3.8-3.1,6.9-6.9,6.9s-6.9-3.1-6.9-6.9s3.1-6.9,6.9-6.9
			S259,300.7,259,304.5"/>
	</g>
	<g>
		<path id="_x39_467782132_x5F_node11" class="st3" d="M279.4,268.2c0,3.8-3.1,6.9-6.9,6.9s-6.9-3.1-6.9-6.9s3.1-6.9,6.9-6.9
			S279.4,264.4,279.4,268.2"/>
	</g>
	<g>
		<path id="_x39_467782132_x5F_node12" class="st3" d="M259.3,231.8c0,3.8-3.1,6.9-6.9,6.9s-6.9-3.1-6.9-6.9s3.1-6.9,6.9-6.9
			S259.3,228,259.3,231.8"/>
	</g>
	<g>
		<path id="_x39_467782132_x5F_node13" class="st3" d="M253.4,195.5c0,3.8-3.1,6.9-6.9,6.9s-6.9-3.1-6.9-6.9s3.1-6.9,6.9-6.9
			S253.4,191.6,253.4,195.5"/>
	</g>
	<g>
		<path id="_x39_467782132_x5F_node15" class="st3" d="M256.5,159.1c0,3.8-3.1,6.9-6.9,6.9s-6.9-3.1-6.9-6.9s3.1-6.9,6.9-6.9
			S256.5,155.3,256.5,159.1"/>
	</g>
	<g>
		<path id="_x39_467782132_x5F_node17" class="st3" d="M257.3,122.7c0,3.8-3.1,6.9-6.9,6.9s-6.9-3.1-6.9-6.9s3.1-6.9,6.9-6.9
			S257.3,118.9,257.3,122.7"/>
	</g>
	<g>
		<path id="_x39_467782132_x5F_node18" class="st3" d="M257.8,86.4c0,3.8-3.1,6.9-6.9,6.9s-6.9-3.1-6.9-6.9s3.1-6.9,6.9-6.9
			S257.8,82.5,257.8,86.4"/>
	</g>
	<g>
		<path id="_x39_467782132_x5F_node19" class="st3" d="M254.6,50c0,3.8-3.1,6.9-6.9,6.9s-6.9-3.1-6.9-6.9s3.1-6.9,6.9-6.9
			S254.6,46.2,254.6,50"/>
	</g>
</g>
<g>
	<g transform="translate(50,471.1237)">
		<text transform="matrix(1 0 0 1 -3.3369 -1.528438e-04)" class="st4 st5 st6">0</text>
	</g>
	<g transform="translate(210,471.1237)">
		<text transform="matrix(1 0 0 1 -3.3369 -1.528438e-04)" class="st4 st5 st6">1</text>
	</g>
	<g transform="translate(450,471.1237)">
		<text transform="matrix(1 0 0 1 -3.3369 -1.528438e-04)" class="st4 st5 st6">2</text>
	</g>
	<g transform="translate(130,471.1237)">
		<text transform="matrix(1 0 0 1 -3.3369 -1.528438e-04)" class="st4 st5 st6">3</text>
	</g>
	<g transform="translate(290,471.1237)">
		<text transform="matrix(1 0 0 1 -3.3369 -1.528438e-04)" class="st4 st5 st6">4</text>
	</g>
	<g transform="translate(370,471.1237)">
		<text transform="matrix(1 0 0 1 -3.3369 -1.528438e-04)" class="st4 st5 st6">5</text>
	</g>
	<g transform="translate(210.0945,401.5126)">
		<text transform="matrix(1 0 0 1 -6.6738 9.131250e-05)" class="st4 st5 st6">6</text>
	</g>
	<g transform="translate(238.9093,365.149)">
		<text transform="matrix(1 0 0 1 -6.674 -6.121875e-05)" class="st4 st5 st6">7</text>
	</g>
	<g transform="translate(274.6301,328.7854)">
		<text transform="matrix(1 0 0 1 3.095312e-05 -2.437500e-04)" class="st4 st5 st6">8</text>
	</g>
	<g transform="translate(252.0876,289.4217)">
		<text transform="matrix(1 0 0 1 -11.6777 1.830000e-04)" class="st4 st5 st6">9/10</text>
	</g>
	<g transform="translate(284.5657,256.0581)">
		<text transform="matrix(1 0 0 1 -3.017188e-05 0)" class="st4 st5 st6">11</text>
	</g>
	<g transform="translate(264.5338,219.6945)">
		<text transform="matrix(1 0 0 1 -1.215938e-04 -1.680625e-04)" class="st4 st5 st6">12</text>
	</g>
	<g transform="translate(246.4993,180.3308)">
		<text transform="matrix(1 0 0 1 -15.0147 -2.285938e-04)" class="st4 st5 st6">13/14</text>
	</g>
	<g transform="translate(249.6071,143.9672)">
		<text transform="matrix(1 0 0 1 -15.0146 9.115625e-05)" class="st4 st5 st6">15/16</text>
	</g>
	<g transform="translate(262.5211,110.6035)">
		<text transform="matrix(1 0 0 1 -9.190625e-05 1.562500e-05)" class="st4 st5 st6">17</text>
	</g>
	<g transform="translate(263.0523,74.2399)">
		<text transform="matrix(1 0 0 1 -6.090625e-05 -1.529062e-04)" class="st4 st5 st6">18</text>
	</g>
	<g transform="translate(247.666,34.8763)">
		<text transform="matrix(1 0 0 1 -6.6738 1.638438e-04)" class="st4 st5 st6">19</text>
	</g>
</g>
<path class="st0" d="z"/>
</svg>
