<?xml version="1.0" encoding="utf-8"?>
<!-- Generator: Adobe Illustrator 25.2.1, SVG Export Plug-In . SVG Version: 6.00 Build 0)  -->
<svg version="1.1" id="Layer_1" xmlns:ev="http://www.w3.org/2001/xml-events"
	 xmlns="http://www.w3.org/2000/svg" xmlns:xlink="http://www.w3.org/1999/xlink" x="0px" y="0px" viewBox="0 0 1000 300"
	 style="enable-background:new 0 0 1000 300;" xml:space="preserve">
<style type="text/css">
	.st0{font-family:'ArialMT';}
	.st1{font-size:14px;}
	.st2{fill:none;stroke:#000000;}
	.st3{font-family:'Arial-BoldMT';}
</style>
<g>
	<g>
		<g>
			<g transform="translate(500 300)">
				<text transform="matrix(1 0 0 1 -52.9204 -11)" class="st0 st1">Genome position</text>
			</g>
			<line class="st2" x1="20" y1="263.2" x2="980" y2="263.2"/>
			<g>
				<g transform="translate(20 263.2)">
					<line class="st2" x1="0" y1="-5" x2="0" y2="5"/>
					<g transform="translate(0 6)">
						<text transform="matrix(1 0 0 1 -3.8931 12.0109)" class="st3 st1">0</text>
					</g>
				</g>
				<g transform="translate(340 263.2)">
					<line class="st2" x1="0" y1="-5" x2="0" y2="5"/>
					<g transform="translate(0 6)">
						<text transform="matrix(1 0 0 1 -11.6792 12.0109)" class="st3 st1">172</text>
					</g>
				</g>
				<g transform="translate(660 263.2)">
					<line class="st2" x1="0" y1="-5" x2="0" y2="5"/>
					<g transform="translate(0 6)">
						<text transform="matrix(1 0 0 1 -11.6792 12.0109)" class="st3 st1">198</text>
					</g>
				</g>
				<g transform="translate(980 263.2)">
					<line class="st2" x1="0" y1="-5" x2="0" y2="5"/>
					<g transform="translate(0 6)">
						<text transform="matrix(1 0 0 1 -15.5723 12.0109)" class="st3 st1">1000</text>
					</g>
				</g>
			</g>
		</g>
	</g>
	<g>
		<g transform="translate(20 0)">
			<g>
				<g transform="translate(136.667 26.8)">
					<g transform="translate(70 43.2444)">
						<g transform="translate(0.0 21.6222)">
							<g transform="translate(0.0 43.2444)">
								<g transform="translate(46.6667 43.2444)">
									<g transform="translate(-23.3333 43.2444)">
										<path class="st2" d="M0,0v-43.2h23.3"/>
										<rect x="-3" y="-3" width="6" height="6"/>
										<text transform="matrix(1 0 0 1 -3.893 11.0001)" class="st0 st1">3</text>
									</g>
									<g transform="translate(23.3333 43.2444)">
										<path class="st2" d="M0,0v-43.2h-23.3"/>
										<rect x="-3" y="-3" width="6" height="6"/>
										<text transform="matrix(1 0 0 1 -3.8931 11.0001)" class="st0 st1">4</text>
									</g>
									<path class="st2" d="M0,0v-43.2h-46.7"/>
									<circle cx="0" cy="0" r="3"/>
									<text transform="matrix(1 0 0 1 3 -7.0001)" class="st0 st1">7</text>
								</g>
								<g transform="translate(-46.6667 21.6222)">
									<g transform="translate(-23.3333 64.8667)">
										<path class="st2" d="M0,0v-64.9h23.3"/>
										<rect x="-3" y="-3" width="6" height="6"/>
										<text transform="matrix(1 0 0 1 -3.8931 11)" class="st0 st1">1</text>
									</g>
									<g transform="translate(23.3333 64.8667)">
										<path class="st2" d="M0,0v-64.9h-23.3"/>
										<rect x="-3" y="-3" width="6" height="6"/>
										<text transform="matrix(1 0 0 1 -3.8932 11)" class="st0 st1">2</text>
									</g>
									<path class="st2" d="M0,0v-21.6h46.7"/>
									<circle cx="0" cy="0" r="3"/>
									<text transform="matrix(1 0 0 1 -10.7862 -7)" class="st0 st1">8</text>
								</g>
								<path class="st2" d="M0,0v-43.2l0,0"/>
								<circle cx="0" cy="0" r="3"/>
								<text transform="matrix(1 0 0 1 -10.7861 -6.9999)" class="st0 st1">9</text>
							</g>
							<path class="st2" d="M0,0v-21.6l0,0"/>
							<circle cx="0" cy="0" r="3"/>
							<text transform="matrix(1 0 0 1 -18.5723 -7.0001)" class="st0 st1">12</text>
						</g>
						<path class="st2" d="M0,0v-43.2h-70"/>
						<circle cx="0" cy="0" r="3"/>
						<text transform="matrix(1 0 0 1 3 -7)" class="st0 st1">13</text>
					</g>
					<g transform="translate(-70 21.6222)">
						<g transform="translate(0.0 64.8667)">
							<g transform="translate(0.0 86.4889)">
								<g transform="translate(-23.3333 21.6222)">
									<path class="st2" d="M0,0v-21.6h23.3"/>
									<rect x="-3" y="-3" width="6" height="6"/>
									<text transform="matrix(1 0 0 1 -3.893 10.9999)" class="st0 st1">0</text>
								</g>
								<g transform="translate(23.3333 21.6222)">
									<path class="st2" d="M0,0v-21.6h-23.3"/>
									<rect x="-3" y="-3" width="6" height="6"/>
									<text transform="matrix(1 0 0 1 -3.8931 10.9999)" class="st0 st1">5</text>
								</g>
								<path class="st2" d="M0,0v-86.5l0,0"/>
								<circle cx="0" cy="0" r="3"/>
								<text transform="matrix(1 0 0 1 -10.7861 -7)" class="st0 st1">6</text>
							</g>
							<path class="st2" d="M0,0v-64.9l0,0"/>
							<circle cx="0" cy="0" r="3"/>
							<text transform="matrix(1 0 0 1 -18.5723 -6.9998)" class="st0 st1">10</text>
						</g>
						<path class="st2" d="M0,0v-21.6h70"/>
						<circle cx="0" cy="0" r="3"/>
						<text transform="matrix(1 0 0 1 -18.5723 -6.9998)" class="st0 st1">15</text>
					</g>
					<circle cx="0" cy="0" r="3"/>
					<text transform="matrix(1 0 0 1 -7.7861 -11.0002)" class="st0 st1">16</text>
				</g>
			</g>
		</g>
		<g transform="translate(340 0)">
			<g>
				<g transform="translate(136.667 48.4222)">
					<g transform="translate(-70 64.8667)">
						<g transform="translate(0.0 86.4889)">
							<g transform="translate(-23.3333 21.6222)">
								<path class="st2" d="M0,0v-21.6h23.3"/>
								<rect x="-3" y="-3" width="6" height="6"/>
								<text transform="matrix(1 0 0 1 -3.893 10.9999)" class="st0 st1">0</text>
							</g>
							<g transform="translate(23.3333 21.6222)">
								<path class="st2" d="M0,0v-21.6h-23.3"/>
								<rect x="-3" y="-3" width="6" height="6"/>
								<text transform="matrix(1 0 0 1 -3.8931 10.9999)" class="st0 st1">5</text>
							</g>
							<path class="st2" d="M0,0v-86.5l0,0"/>
							<circle cx="0" cy="0" r="3"/>
							<text transform="matrix(1 0 0 1 -10.7861 -7)" class="st0 st1">6</text>
						</g>
						<path class="st2" d="M0,0v-64.9h70"/>
						<circle cx="0" cy="0" r="3"/>
						<text transform="matrix(1 0 0 1 -18.5723 -6.9998)" class="st0 st1">10</text>
					</g>
					<g transform="translate(70 21.6222)">
						<g transform="translate(0.0 21.6222)">
							<g transform="translate(0.0 43.2444)">
								<g transform="translate(46.6667 43.2444)">
									<g transform="translate(-23.3333 43.2444)">
										<path class="st2" d="M0,0v-43.2h23.3"/>
										<rect x="-3" y="-3" width="6" height="6"/>
										<text transform="matrix(1 0 0 1 -3.893 11.0001)" class="st0 st1">3</text>
									</g>
									<g transform="translate(23.3333 43.2444)">
										<path class="st2" d="M0,0v-43.2h-23.3"/>
										<rect x="-3" y="-3" width="6" height="6"/>
										<text transform="matrix(1 0 0 1 -3.8931 11.0001)" class="st0 st1">4</text>
									</g>
									<path class="st2" d="M0,0v-43.2h-46.7"/>
									<circle cx="0" cy="0" r="3"/>
									<text transform="matrix(1 0 0 1 3 -7.0001)" class="st0 st1">7</text>
								</g>
								<g transform="translate(-46.6667 21.6222)">
									<g transform="translate(-23.3333 64.8667)">
										<path class="st2" d="M0,0v-64.9h23.3"/>
										<rect x="-3" y="-3" width="6" height="6"/>
										<text transform="matrix(1 0 0 1 -3.8931 11)" class="st0 st1">1</text>
									</g>
									<g transform="translate(23.3333 64.8667)">
										<path class="st2" d="M0,0v-64.9h-23.3"/>
										<rect x="-3" y="-3" width="6" height="6"/>
										<text transform="matrix(1 0 0 1 -3.8932 11)" class="st0 st1">2</text>
									</g>
									<path class="st2" d="M0,0v-21.6h46.7"/>
									<circle cx="0" cy="0" r="3"/>
									<text transform="matrix(1 0 0 1 -10.7862 -7)" class="st0 st1">8</text>
								</g>
								<path class="st2" d="M0,0v-43.2l0,0"/>
								<circle cx="0" cy="0" r="3"/>
								<text transform="matrix(1 0 0 1 -10.7861 -6.9999)" class="st0 st1">9</text>
							</g>
							<path class="st2" d="M0,0v-21.6l0,0"/>
							<circle cx="0" cy="0" r="3"/>
							<text transform="matrix(1 0 0 1 -18.5723 -7.0001)" class="st0 st1">12</text>
						</g>
						<path class="st2" d="M0,0v-21.6h-70"/>
						<circle cx="0" cy="0" r="3"/>
						<text transform="matrix(1 0 0 1 3 -7)" class="st0 st1">14</text>
					</g>
					<circle cx="0" cy="0" r="3"/>
					<text transform="matrix(1 0 0 1 -7.7861 -10.9998)" class="st0 st1">15</text>
				</g>
			</g>
		</g>
		<g transform="translate(660 0)">
			<g>
				<g transform="translate(136.667 91.6667)">
					<g transform="translate(70 43.2444)">
						<g transform="translate(46.6667 43.2444)">
							<g transform="translate(-23.3333 43.2444)">
								<path class="st2" d="M0,0v-43.2h23.3"/>
								<rect x="-3" y="-3" width="6" height="6"/>
								<text transform="matrix(1 0 0 1 -3.893 11)" class="st0 st1">3</text>
							</g>
							<g transform="translate(23.3333 43.2444)">
								<path class="st2" d="M0,0v-43.2h-23.3"/>
								<rect x="-3" y="-3" width="6" height="6"/>
								<text transform="matrix(1 0 0 1 -3.8931 11)" class="st0 st1">4</text>
							</g>
							<path class="st2" d="M0,0v-43.2h-46.7"/>
							<circle cx="0" cy="0" r="3"/>
							<text transform="matrix(1 0 0 1 3 -7.0002)" class="st0 st1">7</text>
						</g>
						<g transform="translate(-46.6667 21.6222)">
							<g transform="translate(-23.3333 64.8667)">
								<path class="st2" d="M0,0v-64.9h23.3"/>
								<rect x="-3" y="-3" width="6" height="6"/>
								<text transform="matrix(1 0 0 1 -3.8931 10.9999)" class="st0 st1">1</text>
							</g>
							<g transform="translate(23.3333 64.8667)">
								<path class="st2" d="M0,0v-64.9h-23.3"/>
								<rect x="-3" y="-3" width="6" height="6"/>
								<text transform="matrix(1 0 0 1 -3.8932 10.9999)" class="st0 st1">2</text>
							</g>
							<path class="st2" d="M0,0v-21.6h46.7"/>
							<circle cx="0" cy="0" r="3"/>
							<text transform="matrix(1 0 0 1 -10.7862 -7.0001)" class="st0 st1">8</text>
						</g>
						<path class="st2" d="M0,0v-43.2h-70"/>
						<circle cx="0" cy="0" r="3"/>
						<text transform="matrix(1 0 0 1 3 -7)" class="st0 st1">9</text>
					</g>
					<g transform="translate(-70 21.6222)">
						<g transform="translate(0.0 86.4889)">
							<g transform="translate(-23.3333 21.6222)">
								<path class="st2" d="M0,0v-21.6h23.3"/>
								<rect x="-3" y="-3" width="6" height="6"/>
								<text transform="matrix(1 0 0 1 -3.893 10.9999)" class="st0 st1">0</text>
							</g>
							<g transform="translate(23.3333 21.6222)">
								<path class="st2" d="M0,0v-21.6h-23.3"/>
								<rect x="-3" y="-3" width="6" height="6"/>
								<text transform="matrix(1 0 0 1 -3.8931 10.9999)" class="st0 st1">5</text>
							</g>
							<path class="st2" d="M0,0v-86.5l0,0"/>
							<circle cx="0" cy="0" r="3"/>
							<text transform="matrix(1 0 0 1 -10.7861 -7)" class="st0 st1">6</text>
						</g>
						<path class="st2" d="M0,0v-21.6h70"/>
						<circle cx="0" cy="0" r="3"/>
						<text transform="matrix(1 0 0 1 -17.5332 -6.9998)" class="st0 st1">11</text>
					</g>
					<circle cx="0" cy="0" r="3"/>
					<text transform="matrix(1 0 0 1 -7.7861 -11.0002)" class="st0 st1">12</text>
				</g>
			</g>
		</g>
	</g>
</g>
</svg>
