<svg baseProfile="full" height="300" version="1.1" width="1000" xmlns="http://www.w3.org/2000/svg" xmlns:ev="http://www.w3.org/2001/xml-events" xmlns:xlink="http://www.w3.org/1999/xlink"><defs><style type="text/css"><![CDATA[.background path {fill: #808080; fill-opacity: 0}.background path:nth-child(odd) {fill-opacity: .1}.x-regions rect {fill: yellow; stroke: black; opacity: 0.5}.axes {font-size: 14px}.x-axis .tick .lab {font-weight: bold; dominant-baseline: hanging}.axes, .tree {font-size: 14px; text-anchor: middle}.axes line, .edge {stroke: black; fill: none}.axes .ax-skip {stroke-dasharray: 4}.y-axis .grid {stroke: #FAFAFA}.node > .sym {fill: black; stroke: none}.site > .sym {stroke: black}.mut text {fill: red; font-style: italic}.mut.extra text {fill: hotpink}.mut line {fill: none; stroke: none}.mut .sym {fill: none; stroke: red}.mut.extra .sym {stroke: hotpink}.node .mut .sym {stroke-width: 1.5px}.tree text, .tree-sequence text {dominant-baseline: central}.plotbox .lab.lft {text-anchor: end}.plotbox .lab.rgt {text-anchor: start}.polytomy line {stroke: black; stroke-dasharray: 1px, 1px}.polytomy text {paint-order:stroke;stroke-width:0.3em;stroke:white}]]></style></defs><g class="tree-sequence"><g class="axes"><g class="x-axis"><g class="title" transform="translate(500 300)"><text class="lab" text-anchor="middle" transform="translate(0 -11)">Genome position</text></g><line class="ax-line" x1="20" x2="980" y1="263.2" y2="263.2" /><g class="ticks"><g class="tick" transform="translate(20 263.2)"><line x1="0" x2="0" y1="-5" y2="5" /><g transform="translate(0 6)"><text class="lab">0</text></g></g><g class="tick" transform="translate(340 263.2)"><line x1="0" x2="0" y1="-5" y2="5" /><g transform="translate(0 6)"><text class="lab">172</text></g></g><g class="tick" transform="translate(660 263.2)"><line x1="0" x2="0" y1="-5" y2="5" /><g transform="translate(0 6)"><text class="lab">198</text></g></g><g class="tick" transform="translate(980 263.2)"><line x1="0" x2="0" y1="-5" y2="5" /><g transform="translate(0 6)"><text class="lab">1000</text></g></g></g></g></g><g class="plotbox trees"><g class="tree t0" transform="translate(20 0)"><g class="plotbox"><g class="c2 node n16 p0 root" transform="translate(136.667 26.8)"><g class="a16 c1 node n13 p0" transform="translate(70 43.2444)"><g class="a13 c1 node n12 p0" transform="translate(0.0 21.6222)"><g class="a12 c2 node n9 p0" transform="translate(0.0 43.2444)"><g class="a9 c2 node n7 p0" transform="translate(46.6667 43.2444)"><g class="a7 i1 leaf node n3 p0 sample" transform="translate(-23.3333 43.2444)"><path class="edge" d="M 0 0 V -43.2444 H 23.3333" /><rect class="sym" height="6" width="6" x="-3" y="-3" /><text class="lab" transform="translate(0 11)">3</text></g><g class="a7 i2 leaf node n4 p0 sample" transform="translate(23.3333 43.2444)"><path class="edge" d="M 0 0 V -43.2444 H -23.3333" /><rect class="sym" height="6" width="6" x="-3" y="-3" /><text class="lab" transform="translate(0 11)">4</text></g><path class="edge" d="M 0 0 V -43.2444 H -46.6667" /><circle class="sym" cx="0" cy="0" r="3" /><text class="lab rgt" transform="translate(3 -7)">7</text></g><g class="a9 c2 node n8 p0" transform="translate(-46.6667 21.6222)"><g class="a8 i0 leaf node n1 p0 sample" transform="translate(-23.3333 64.8667)"><path class="edge" d="M 0 0 V -64.8667 H 23.3333" /><rect class="sym" height="6" width="6" x="-3" y="-3" /><text class="lab" transform="translate(0 11)">1</text></g><g class="a8 i1 leaf node n2 p0 sample" transform="translate(23.3333 64.8667)"><path class="edge" d="M 0 0 V -64.8667 H -23.3333" /><rect class="sym" height="6" width="6" x="-3" y="-3" /><text class="lab" transform="translate(0 11)">2</text></g><path class="edge" d="M 0 0 V -21.6222 H 46.6667" /><circle class="sym" cx="0" cy="0" r="3" /><text class="lab lft" transform="translate(-3 -7)">8</text></g><path class="edge" d="M 0 0 V -43.2444 H 0.0" /><circle class="sym" cx="0" cy="0" r="3" /><text class="lab lft" transform="translate(-3 -7)">9</text></g><path class="edge" d="M 0 0 V -21.6222 H 0.0" /><circle class="sym" cx="0" cy="0" r="3" /><text class="lab lft" transform="translate(-3 -7)">12</text></g><path class="edge" d="M 0 0 V -43.2444 H -70" /><circle class="sym" cx="0" cy="0" r="3" /><text class="lab rgt" transform="translate(3 -7)">13</text></g><g class="a16 c1 node n15 p0" transform="translate(-70 21.6222)"><g class="a15 c1 node n10 p0" transform="translate(0.0 64.8667)"><g class="a10 c2 node n6 p0" transform="translate(0.0 86.4889)"><g class="a6 i0 leaf node n0 p0 sample" transform="translate(-23.3333 21.6222)"><path class="edge" d="M 0 0 V -21.6222 H 23.3333" /><rect class="sym" height="6" width="6" x="-3" y="-3" /><text class="lab" transform="translate(0 11)">0</text></g><g class="a6 i2 leaf node n5 p0 sample" transform="translate(23.3333 21.6222)"><path class="edge" d="M 0 0 V -21.6222 H -23.3333" /><rect class="sym" height="6" width="6" x="-3" y="-3" /><text class="lab" transform="translate(0 11)">5</text></g><path class="edge" d="M 0 0 V -86.4889 H 0.0" /><circle class="sym" cx="0" cy="0" r="3" /><text class="lab lft" transform="translate(-3 -7)">6</text></g><path class="edge" d="M 0 0 V -64.8667 H 0.0" /><circle class="sym" cx="0" cy="0" r="3" /><text class="lab lft" transform="translate(-3 -7)">10</text></g><path class="edge" d="M 0 0 V -21.6222 H 70" /><circle class="sym" cx="0" cy="0" r="3" /><text class="lab lft" transform="translate(-3 -7)">15</text></g><circle class="sym" cx="0" cy="0" r="3" /><text class="lab" transform="translate(0 -11)">16</text></g></g></g><g class="tree t1" transform="translate(340 0)"><g class="plotbox"><g class="c2 node n15 p0 root" transform="translate(136.667 48.4222)"><g class="a15 c1 node n10 p0" transform="translate(-70 64.8667)"><g class="a10 c2 node n6 p0" transform="translate(0.0 86.4889)"><g class="a6 i0 leaf node n0 p0 sample" transform="translate(-23.3333 21.6222)"><path class="edge" d="M 0 0 V -21.6222 H 23.3333" /><rect class="sym" height="6" width="6" x="-3" y="-3" /><text class="lab" transform="translate(0 11)">0</text></g><g class="a6 i2 leaf node n5 p0 sample" transform="translate(23.3333 21.6222)"><path class="edge" d="M 0 0 V -21.6222 H -23.3333" /><rect class="sym" height="6" width="6" x="-3" y="-3" /><text class="lab" transform="translate(0 11)">5</text></g><path class="edge" d="M 0 0 V -86.4889 H 0.0" /><circle class="sym" cx="0" cy="0" r="3" /><text class="lab lft" transform="translate(-3 -7)">6</text></g><path class="edge" d="M 0 0 V -64.8667 H 70" /><circle class="sym" cx="0" cy="0" r="3" /><text class="lab lft" transform="translate(-3 -7)">10</text></g><g class="a15 c1 node n14 p0" transform="translate(70 21.6222)"><g class="a14 c1 node n12 p0" transform="translate(0.0 21.6222)"><g class="a12 c2 node n9 p0" transform="translate(0.0 43.2444)"><g class="a9 c2 node n7 p0" transform="translate(46.6667 43.2444)"><g class="a7 i1 leaf node n3 p0 sample" transform="translate(-23.3333 43.2444)"><path class="edge" d="M 0 0 V -43.2444 H 23.3333" /><rect class="sym" height="6" width="6" x="-3" y="-3" /><text class="lab" transform="translate(0 11)">3</text></g><g class="a7 i2 leaf node n4 p0 sample" transform="translate(23.3333 43.2444)"><path class="edge" d="M 0 0 V -43.2444 H -23.3333" /><rect class="sym" height="6" width="6" x="-3" y="-3" /><text class="lab" transform="translate(0 11)">4</text></g><path class="edge" d="M 0 0 V -43.2444 H -46.6667" /><circle class="sym" cx="0" cy="0" r="3" /><text class="lab rgt" transform="translate(3 -7)">7</text></g><g class="a9 c2 node n8 p0" transform="translate(-46.6667 21.6222)"><g class="a8 i0 leaf node n1 p0 sample" transform="translate(-23.3333 64.8667)"><path class="edge" d="M 0 0 V -64.8667 H 23.3333" /><rect class="sym" height="6" width="6" x="-3" y="-3" /><text class="lab" transform="translate(0 11)">1</text></g><g class="a8 i1 leaf node n2 p0 sample" transform="translate(23.3333 64.8667)"><path class="edge" d="M 0 0 V -64.8667 H -23.3333" /><rect class="sym" height="6" width="6" x="-3" y="-3" /><text class="lab" transform="translate(0 11)">2</text></g><path class="edge" d="M 0 0 V -21.6222 H 46.6667" /><circle class="sym" cx="0" cy="0" r="3" /><text class="lab lft" transform="translate(-3 -7)">8</text></g><path class="edge" d="M 0 0 V -43.2444 H 0.0" /><circle class="sym" cx="0" cy="0" r="3" /><text class="lab lft" transform="translate(-3 -7)">9</text></g><path class="edge" d="M 0 0 V -21.6222 H 0.0" /><circle class="sym" cx="0" cy="0" r="3" /><text class="lab lft" transform="translate(-3 -7)">12</text></g><path class="edge" d="M 0 0 V -21.6222 H -70" /><circle class="sym" cx="0" cy="0" r="3" /><text class="lab rgt" transform="translate(3 -7)">14</text></g><circle class="sym" cx="0" cy="0" r="3" /><text class="lab" transform="translate(0 -11)">15</text></g></g></g><g class="tree t2" transform="translate(660 0)"><g class="plotbox"><g class="c2 node n12 p0 root" transform="translate(136.667 91.6667)"><g class="a12 c2 node n9 p0" transform="translate(70 43.2444)"><g class="a9 c2 node n7 p0" transform="translate(46.6667 43.2444)"><g class="a7 i1 leaf node n3 p0 sample" transform="translate(-23.3333 43.2444)"><path class="edge" d="M 0 0 V -43.2444 H 23.3333" /><rect class="sym" height="6" width="6" x="-3" y="-3" /><text class="lab" transform="translate(0 11)">3</text></g><g class="a7 i2 leaf node n4 p0 sample" transform="translate(23.3333 43.2444)"><path class="edge" d="M 0 0 V -43.2444 H -23.3333" /><rect class="sym" height="6" width="6" x="-3" y="-3" /><text class="lab" transform="translate(0 11)">4</text></g><path class="edge" d="M 0 0 V -43.2444 H -46.6667" /><circle class="sym" cx="0" cy="0" r="3" /><text class="lab rgt" transform="translate(3 -7)">7</text></g><g class="a9 c2 node n8 p0" transform="translate(-46.6667 21.6222)"><g class="a8 i0 leaf node n1 p0 sample" transform="translate(-23.3333 64.8667)"><path class="edge" d="M 0 0 V -64.8667 H 23.3333" /><rect class="sym" height="6" width="6" x="-3" y="-3" /><text class="lab" transform="translate(0 11)">1</text></g><g class="a8 i1 leaf node n2 p0 sample" transform="translate(23.3333 64.8667)"><path class="edge" d="M 0 0 V -64.8667 H -23.3333" /><rect class="sym" height="6" width="6" x="-3" y="-3" /><text class="lab" transform="translate(0 11)">2</text></g><path class="edge" d="M 0 0 V -21.6222 H 46.6667" /><circle class="sym" cx="0" cy="0" r="3" /><text class="lab lft" transform="translate(-3 -7)">8</text></g><path class="edge" d="M 0 0 V -43.2444 H -70" /><circle class="sym" cx="0" cy="0" r="3" /><text class="lab rgt" transform="translate(3 -7)">9</text></g><g class="a12 c1 node n11 p0" transform="translate(-70 21.6222)"><g class="a11 c2 node n6 p0" transform="translate(0.0 86.4889)"><g class="a6 i0 leaf node n0 p0 sample" transform="translate(-23.3333 21.6222)"><path class="edge" d="M 0 0 V -21.6222 H 23.3333" /><rect class="sym" height="6" width="6" x="-3" y="-3" /><text class="lab" transform="translate(0 11)">0</text></g><g class="a6 i2 leaf node n5 p0 sample" transform="translate(23.3333 21.6222)"><path class="edge" d="M 0 0 V -21.6222 H -23.3333" /><rect class="sym" height="6" width="6" x="-3" y="-3" /><text class="lab" transform="translate(0 11)">5</text></g><path class="edge" d="M 0 0 V -86.4889 H 0.0" /><circle class="sym" cx="0" cy="0" r="3" /><text class="lab lft" transform="translate(-3 -7)">6</text></g><path class="edge" d="M 0 0 V -21.6222 H 70" /><circle class="sym" cx="0" cy="0" r="3" /><text class="lab lft" transform="translate(-3 -7)">11</text></g><circle class="sym" cx="0" cy="0" r="3" /><text class="lab" transform="translate(0 -11)">12</text></g></g></g></g></g></svg>